<?xml version="1.0" encoding="UTF-8" standalone="no"?>
<!DOCTYPE svg PUBLIC "-//W3C//DTD SVG 1.1//EN"
 "http://www.w3.org/Graphics/SVG/1.1/DTD/svg11.dtd">
<!-- Generated by graphviz version 2.38.0 (20140413.2041)
 -->
<!-- Title: Tree Pages: 1 -->
<svg width="2205pt" height="671pt"
 viewBox="0.00 0.00 2204.50 671.00" xmlns="http://www.w3.org/2000/svg" xmlns:xlink="http://www.w3.org/1999/xlink">
<g id="graph0" class="graph" transform="scale(1 1) rotate(0) translate(4 667)">
<title>Tree</title>
<polygon fill="white" stroke="none" points="-4,4 -4,-667 2200.5,-667 2200.5,4 -4,4"/>
<!-- 0 -->
<g id="node1" class="node"><title>0</title>
<path fill="#eda978" stroke="black" d="M982,-663C982,-663 845,-663 845,-663 839,-663 833,-657 833,-651 833,-651 833,-592 833,-592 833,-586 839,-580 845,-580 845,-580 982,-580 982,-580 988,-580 994,-586 994,-592 994,-592 994,-651 994,-651 994,-657 988,-663 982,-663"/>
<text text-anchor="start" x="841" y="-647.8" font-family="Helvetica,sans-Serif" font-size="14.00">last_evaluation ≤ 0.575</text>
<text text-anchor="start" x="876" y="-632.8" font-family="Helvetica,sans-Serif" font-size="14.00">gini = 0.367</text>
<text text-anchor="start" x="862" y="-617.8" font-family="Helvetica,sans-Serif" font-size="14.00">samples = 6687</text>
<text text-anchor="start" x="848.5" y="-602.8" font-family="Helvetica,sans-Serif" font-size="14.00">value = [7960, 2539]</text>
<text text-anchor="start" x="881" y="-587.8" font-family="Helvetica,sans-Serif" font-size="14.00">class = no</text>
</g>
<!-- 1 -->
<g id="node2" class="node"><title>1</title>
<path fill="#f5cfb4" stroke="black" d="M858,-544C858,-544 721,-544 721,-544 715,-544 709,-538 709,-532 709,-532 709,-473 709,-473 709,-467 715,-461 721,-461 721,-461 858,-461 858,-461 864,-461 870,-467 870,-473 870,-473 870,-532 870,-532 870,-538 864,-544 858,-544"/>
<text text-anchor="start" x="717" y="-528.8" font-family="Helvetica,sans-Serif" font-size="14.00">last_evaluation ≤ 0.445</text>
<text text-anchor="start" x="752" y="-513.8" font-family="Helvetica,sans-Serif" font-size="14.00">gini = 0.472</text>
<text text-anchor="start" x="738" y="-498.8" font-family="Helvetica,sans-Serif" font-size="14.00">samples = 1926</text>
<text text-anchor="start" x="724.5" y="-483.8" font-family="Helvetica,sans-Serif" font-size="14.00">value = [1857, 1149]</text>
<text text-anchor="start" x="757" y="-468.8" font-family="Helvetica,sans-Serif" font-size="14.00">class = no</text>
</g>
<!-- 0&#45;&gt;1 -->
<g id="edge1" class="edge"><title>0&#45;&gt;1</title>
<path fill="none" stroke="black" d="M870.479,-579.907C860.572,-570.56 849.95,-560.538 839.766,-550.929"/>
<polygon fill="black" stroke="black" points="842.121,-548.338 832.445,-544.021 837.317,-553.429 842.121,-548.338"/>
<text text-anchor="middle" x="833.171" y="-565.31" font-family="Helvetica,sans-Serif" font-size="14.00">True</text>
</g>
<!-- 18 -->
<g id="node19" class="node"><title>18</title>
<path fill="#eb9e66" stroke="black" d="M1115,-544C1115,-544 962,-544 962,-544 956,-544 950,-538 950,-532 950,-532 950,-473 950,-473 950,-467 956,-461 962,-461 962,-461 1115,-461 1115,-461 1121,-461 1127,-467 1127,-473 1127,-473 1127,-532 1127,-532 1127,-538 1121,-544 1115,-544"/>
<text text-anchor="start" x="958" y="-528.8" font-family="Helvetica,sans-Serif" font-size="14.00">satisfaction_level ≤ 0.115</text>
<text text-anchor="start" x="1001" y="-513.8" font-family="Helvetica,sans-Serif" font-size="14.00">gini = 0.302</text>
<text text-anchor="start" x="987" y="-498.8" font-family="Helvetica,sans-Serif" font-size="14.00">samples = 4761</text>
<text text-anchor="start" x="973.5" y="-483.8" font-family="Helvetica,sans-Serif" font-size="14.00">value = [6103, 1390]</text>
<text text-anchor="start" x="1006" y="-468.8" font-family="Helvetica,sans-Serif" font-size="14.00">class = no</text>
</g>
<!-- 0&#45;&gt;18 -->
<g id="edge18" class="edge"><title>0&#45;&gt;18</title>
<path fill="none" stroke="black" d="M956.868,-579.907C966.855,-570.56 977.562,-560.538 987.828,-550.929"/>
<polygon fill="black" stroke="black" points="990.299,-553.41 995.209,-544.021 985.516,-548.299 990.299,-553.41"/>
<text text-anchor="middle" x="994.383" y="-565.307" font-family="Helvetica,sans-Serif" font-size="14.00">False</text>
</g>
<!-- 2 -->
<g id="node3" class="node"><title>2</title>
<path fill="#e58139" stroke="black" d="M679,-417.5C679,-417.5 590,-417.5 590,-417.5 584,-417.5 578,-411.5 578,-405.5 578,-405.5 578,-361.5 578,-361.5 578,-355.5 584,-349.5 590,-349.5 590,-349.5 679,-349.5 679,-349.5 685,-349.5 691,-355.5 691,-361.5 691,-361.5 691,-405.5 691,-405.5 691,-411.5 685,-417.5 679,-417.5"/>
<text text-anchor="start" x="605.5" y="-402.3" font-family="Helvetica,sans-Serif" font-size="14.00">gini = 0.0</text>
<text text-anchor="start" x="587" y="-387.3" font-family="Helvetica,sans-Serif" font-size="14.00">samples = 208</text>
<text text-anchor="start" x="586" y="-372.3" font-family="Helvetica,sans-Serif" font-size="14.00">value = [313, 0]</text>
<text text-anchor="start" x="602" y="-357.3" font-family="Helvetica,sans-Serif" font-size="14.00">class = no</text>
</g>
<!-- 1&#45;&gt;2 -->
<g id="edge2" class="edge"><title>1&#45;&gt;2</title>
<path fill="none" stroke="black" d="M735.724,-460.907C719.79,-448.88 702.375,-435.735 686.552,-423.791"/>
<polygon fill="black" stroke="black" points="688.529,-420.898 678.439,-417.667 684.312,-426.485 688.529,-420.898"/>
</g>
<!-- 3 -->
<g id="node4" class="node"><title>3</title>
<path fill="#f8dfcc" stroke="black" d="M858,-425C858,-425 721,-425 721,-425 715,-425 709,-419 709,-413 709,-413 709,-354 709,-354 709,-348 715,-342 721,-342 721,-342 858,-342 858,-342 864,-342 870,-348 870,-354 870,-354 870,-413 870,-413 870,-419 864,-425 858,-425"/>
<text text-anchor="start" x="717" y="-409.8" font-family="Helvetica,sans-Serif" font-size="14.00">last_evaluation ≤ 0.475</text>
<text text-anchor="start" x="752" y="-394.8" font-family="Helvetica,sans-Serif" font-size="14.00">gini = 0.489</text>
<text text-anchor="start" x="738" y="-379.8" font-family="Helvetica,sans-Serif" font-size="14.00">samples = 1718</text>
<text text-anchor="start" x="724.5" y="-364.8" font-family="Helvetica,sans-Serif" font-size="14.00">value = [1544, 1149]</text>
<text text-anchor="start" x="757" y="-349.8" font-family="Helvetica,sans-Serif" font-size="14.00">class = no</text>
</g>
<!-- 1&#45;&gt;3 -->
<g id="edge3" class="edge"><title>1&#45;&gt;3</title>
<path fill="none" stroke="black" d="M789.5,-460.907C789.5,-452.649 789.5,-443.864 789.5,-435.302"/>
<polygon fill="black" stroke="black" points="793,-435.021 789.5,-425.021 786,-435.021 793,-435.021"/>
</g>
<!-- 4 -->
<g id="node5" class="node"><title>4</title>
<path fill="#90c8f0" stroke="black" d="M484,-306C484,-306 331,-306 331,-306 325,-306 319,-300 319,-294 319,-294 319,-235 319,-235 319,-229 325,-223 331,-223 331,-223 484,-223 484,-223 490,-223 496,-229 496,-235 496,-235 496,-294 496,-294 496,-300 490,-306 484,-306"/>
<text text-anchor="start" x="327" y="-290.8" font-family="Helvetica,sans-Serif" font-size="14.00">satisfaction_level ≤ 0.465</text>
<text text-anchor="start" x="370" y="-275.8" font-family="Helvetica,sans-Serif" font-size="14.00">gini = 0.424</text>
<text text-anchor="start" x="360" y="-260.8" font-family="Helvetica,sans-Serif" font-size="14.00">samples = 222</text>
<text text-anchor="start" x="350.5" y="-245.8" font-family="Helvetica,sans-Serif" font-size="14.00">value = [109, 249]</text>
<text text-anchor="start" x="371.5" y="-230.8" font-family="Helvetica,sans-Serif" font-size="14.00">class = yes</text>
</g>
<!-- 3&#45;&gt;4 -->
<g id="edge4" class="edge"><title>3&#45;&gt;4</title>
<path fill="none" stroke="black" d="M708.806,-345.424C705.679,-344.231 702.57,-343.084 699.5,-342 636.206,-319.643 563.148,-300.507 505.943,-286.966"/>
<polygon fill="black" stroke="black" points="506.714,-283.552 496.179,-284.672 505.113,-290.366 506.714,-283.552"/>
</g>
<!-- 11 -->
<g id="node12" class="node"><title>11</title>
<path fill="#f5d0b5" stroke="black" d="M858,-306C858,-306 721,-306 721,-306 715,-306 709,-300 709,-294 709,-294 709,-235 709,-235 709,-229 715,-223 721,-223 721,-223 858,-223 858,-223 864,-223 870,-229 870,-235 870,-235 870,-294 870,-294 870,-300 864,-306 858,-306"/>
<text text-anchor="start" x="717" y="-290.8" font-family="Helvetica,sans-Serif" font-size="14.00">last_evaluation ≤ 0.555</text>
<text text-anchor="start" x="752" y="-275.8" font-family="Helvetica,sans-Serif" font-size="14.00">gini = 0.474</text>
<text text-anchor="start" x="738" y="-260.8" font-family="Helvetica,sans-Serif" font-size="14.00">samples = 1496</text>
<text text-anchor="start" x="728.5" y="-245.8" font-family="Helvetica,sans-Serif" font-size="14.00">value = [1435, 900]</text>
<text text-anchor="start" x="757" y="-230.8" font-family="Helvetica,sans-Serif" font-size="14.00">class = no</text>
</g>
<!-- 3&#45;&gt;11 -->
<g id="edge11" class="edge"><title>3&#45;&gt;11</title>
<path fill="none" stroke="black" d="M789.5,-341.907C789.5,-333.649 789.5,-324.864 789.5,-316.302"/>
<polygon fill="black" stroke="black" points="793,-316.021 789.5,-306.021 786,-316.021 793,-316.021"/>
</g>
<!-- 5 -->
<g id="node6" class="node"><title>5</title>
<path fill="#62b1ea" stroke="black" d="M261,-187C261,-187 108,-187 108,-187 102,-187 96,-181 96,-175 96,-175 96,-116 96,-116 96,-110 102,-104 108,-104 108,-104 261,-104 261,-104 267,-104 273,-110 273,-116 273,-116 273,-175 273,-175 273,-181 267,-187 261,-187"/>
<text text-anchor="start" x="104" y="-171.8" font-family="Helvetica,sans-Serif" font-size="14.00">satisfaction_level ≤ 0.355</text>
<text text-anchor="start" x="147" y="-156.8" font-family="Helvetica,sans-Serif" font-size="14.00">gini = 0.282</text>
<text text-anchor="start" x="137" y="-141.8" font-family="Helvetica,sans-Serif" font-size="14.00">samples = 182</text>
<text text-anchor="start" x="131.5" y="-126.8" font-family="Helvetica,sans-Serif" font-size="14.00">value = [50, 244]</text>
<text text-anchor="start" x="148.5" y="-111.8" font-family="Helvetica,sans-Serif" font-size="14.00">class = yes</text>
</g>
<!-- 4&#45;&gt;5 -->
<g id="edge5" class="edge"><title>4&#45;&gt;5</title>
<path fill="none" stroke="black" d="M330.131,-222.907C310.932,-212.834 290.238,-201.977 270.646,-191.698"/>
<polygon fill="black" stroke="black" points="272.213,-188.568 261.732,-187.021 268.961,-194.766 272.213,-188.568"/>
</g>
<!-- 8 -->
<g id="node9" class="node"><title>8</title>
<path fill="#e78c4a" stroke="black" d="M480,-187C480,-187 335,-187 335,-187 329,-187 323,-181 323,-175 323,-175 323,-116 323,-116 323,-110 329,-104 335,-104 335,-104 480,-104 480,-104 486,-104 492,-110 492,-116 492,-116 492,-175 492,-175 492,-181 486,-187 480,-187"/>
<text text-anchor="start" x="331" y="-171.8" font-family="Helvetica,sans-Serif" font-size="14.00">satisfaction_level ≤ 0.67</text>
<text text-anchor="start" x="370" y="-156.8" font-family="Helvetica,sans-Serif" font-size="14.00">gini = 0.144</text>
<text text-anchor="start" x="364" y="-141.8" font-family="Helvetica,sans-Serif" font-size="14.00">samples = 40</text>
<text text-anchor="start" x="363" y="-126.8" font-family="Helvetica,sans-Serif" font-size="14.00">value = [59, 5]</text>
<text text-anchor="start" x="375" y="-111.8" font-family="Helvetica,sans-Serif" font-size="14.00">class = no</text>
</g>
<!-- 4&#45;&gt;8 -->
<g id="edge8" class="edge"><title>4&#45;&gt;8</title>
<path fill="none" stroke="black" d="M407.5,-222.907C407.5,-214.649 407.5,-205.864 407.5,-197.302"/>
<polygon fill="black" stroke="black" points="411,-197.021 407.5,-187.021 404,-197.021 411,-197.021"/>
</g>
<!-- 6 -->
<g id="node7" class="node"><title>6</title>
<path fill="#eca26d" stroke="black" d="M93,-68C93,-68 12,-68 12,-68 6,-68 0,-62 0,-56 0,-56 0,-12 0,-12 0,-6 6,-0 12,-0 12,-0 93,-0 93,-0 99,-0 105,-6 105,-12 105,-12 105,-56 105,-56 105,-62 99,-68 93,-68"/>
<text text-anchor="start" x="15" y="-52.8" font-family="Helvetica,sans-Serif" font-size="14.00">gini = 0.328</text>
<text text-anchor="start" x="9" y="-37.8" font-family="Helvetica,sans-Serif" font-size="14.00">samples = 16</text>
<text text-anchor="start" x="8" y="-22.8" font-family="Helvetica,sans-Serif" font-size="14.00">value = [23, 6]</text>
<text text-anchor="start" x="20" y="-7.8" font-family="Helvetica,sans-Serif" font-size="14.00">class = no</text>
</g>
<!-- 5&#45;&gt;6 -->
<g id="edge6" class="edge"><title>5&#45;&gt;6</title>
<path fill="none" stroke="black" d="M135.348,-103.726C123.913,-94.2406 111.755,-84.1551 100.377,-74.7159"/>
<polygon fill="black" stroke="black" points="102.573,-71.9905 92.642,-68.2996 98.1039,-77.3781 102.573,-71.9905"/>
</g>
<!-- 7 -->
<g id="node8" class="node"><title>7</title>
<path fill="#4fa8e8" stroke="black" d="M233.5,-68C233.5,-68 135.5,-68 135.5,-68 129.5,-68 123.5,-62 123.5,-56 123.5,-56 123.5,-12 123.5,-12 123.5,-6 129.5,-0 135.5,-0 135.5,-0 233.5,-0 233.5,-0 239.5,-0 245.5,-6 245.5,-12 245.5,-12 245.5,-56 245.5,-56 245.5,-62 239.5,-68 233.5,-68"/>
<text text-anchor="start" x="147" y="-52.8" font-family="Helvetica,sans-Serif" font-size="14.00">gini = 0.183</text>
<text text-anchor="start" x="137" y="-37.8" font-family="Helvetica,sans-Serif" font-size="14.00">samples = 166</text>
<text text-anchor="start" x="131.5" y="-22.8" font-family="Helvetica,sans-Serif" font-size="14.00">value = [27, 238]</text>
<text text-anchor="start" x="148.5" y="-7.8" font-family="Helvetica,sans-Serif" font-size="14.00">class = yes</text>
</g>
<!-- 5&#45;&gt;7 -->
<g id="edge7" class="edge"><title>5&#45;&gt;7</title>
<path fill="none" stroke="black" d="M184.5,-103.726C184.5,-95.5175 184.5,-86.8595 184.5,-78.56"/>
<polygon fill="black" stroke="black" points="188,-78.2996 184.5,-68.2996 181,-78.2996 188,-78.2996"/>
</g>
<!-- 9 -->
<g id="node10" class="node"><title>9</title>
<path fill="#e99457" stroke="black" d="M357,-68C357,-68 276,-68 276,-68 270,-68 264,-62 264,-56 264,-56 264,-12 264,-12 264,-6 270,-0 276,-0 276,-0 357,-0 357,-0 363,-0 369,-6 369,-12 369,-12 369,-56 369,-56 369,-62 363,-68 357,-68"/>
<text text-anchor="start" x="279" y="-52.8" font-family="Helvetica,sans-Serif" font-size="14.00">gini = 0.229</text>
<text text-anchor="start" x="273" y="-37.8" font-family="Helvetica,sans-Serif" font-size="14.00">samples = 24</text>
<text text-anchor="start" x="272" y="-22.8" font-family="Helvetica,sans-Serif" font-size="14.00">value = [33, 5]</text>
<text text-anchor="start" x="284" y="-7.8" font-family="Helvetica,sans-Serif" font-size="14.00">class = no</text>
</g>
<!-- 8&#45;&gt;9 -->
<g id="edge9" class="edge"><title>8&#45;&gt;9</title>
<path fill="none" stroke="black" d="M373.615,-103.726C366.111,-94.6966 358.155,-85.1235 350.641,-76.0816"/>
<polygon fill="black" stroke="black" points="353.257,-73.7534 344.174,-68.2996 347.873,-78.2275 353.257,-73.7534"/>
</g>
<!-- 10 -->
<g id="node11" class="node"><title>10</title>
<path fill="#e58139" stroke="black" d="M480,-68C480,-68 399,-68 399,-68 393,-68 387,-62 387,-56 387,-56 387,-12 387,-12 387,-6 393,-0 399,-0 399,-0 480,-0 480,-0 486,-0 492,-6 492,-12 492,-12 492,-56 492,-56 492,-62 486,-68 480,-68"/>
<text text-anchor="start" x="410.5" y="-52.8" font-family="Helvetica,sans-Serif" font-size="14.00">gini = 0.0</text>
<text text-anchor="start" x="396" y="-37.8" font-family="Helvetica,sans-Serif" font-size="14.00">samples = 16</text>
<text text-anchor="start" x="395" y="-22.8" font-family="Helvetica,sans-Serif" font-size="14.00">value = [26, 0]</text>
<text text-anchor="start" x="407" y="-7.8" font-family="Helvetica,sans-Serif" font-size="14.00">class = no</text>
</g>
<!-- 8&#45;&gt;10 -->
<g id="edge10" class="edge"><title>8&#45;&gt;10</title>
<path fill="none" stroke="black" d="M419.416,-103.726C421.868,-95.3351 424.457,-86.4745 426.932,-78.0072"/>
<polygon fill="black" stroke="black" points="430.323,-78.8799 429.769,-68.2996 423.604,-76.9163 430.323,-78.8799"/>
</g>
<!-- 12 -->
<g id="node13" class="node"><title>12</title>
<path fill="#f6d4bc" stroke="black" d="M768,-187C768,-187 615,-187 615,-187 609,-187 603,-181 603,-175 603,-175 603,-116 603,-116 603,-110 609,-104 615,-104 615,-104 768,-104 768,-104 774,-104 780,-110 780,-116 780,-116 780,-175 780,-175 780,-181 774,-187 768,-187"/>
<text text-anchor="start" x="611" y="-171.8" font-family="Helvetica,sans-Serif" font-size="14.00">satisfaction_level ≤ 0.465</text>
<text text-anchor="start" x="654" y="-156.8" font-family="Helvetica,sans-Serif" font-size="14.00">gini = 0.479</text>
<text text-anchor="start" x="640" y="-141.8" font-family="Helvetica,sans-Serif" font-size="14.00">samples = 1202</text>
<text text-anchor="start" x="630.5" y="-126.8" font-family="Helvetica,sans-Serif" font-size="14.00">value = [1130, 745]</text>
<text text-anchor="start" x="659" y="-111.8" font-family="Helvetica,sans-Serif" font-size="14.00">class = no</text>
</g>
<!-- 11&#45;&gt;12 -->
<g id="edge12" class="edge"><title>11&#45;&gt;12</title>
<path fill="none" stroke="black" d="M755.499,-222.907C747.898,-213.832 739.764,-204.121 731.931,-194.769"/>
<polygon fill="black" stroke="black" points="734.545,-192.439 725.441,-187.021 729.179,-196.934 734.545,-192.439"/>
</g>
<!-- 15 -->
<g id="node16" class="node"><title>15</title>
<path fill="#f2c19e" stroke="black" d="M963,-187C963,-187 810,-187 810,-187 804,-187 798,-181 798,-175 798,-175 798,-116 798,-116 798,-110 804,-104 810,-104 810,-104 963,-104 963,-104 969,-104 975,-110 975,-116 975,-116 975,-175 975,-175 975,-181 969,-187 963,-187"/>
<text text-anchor="start" x="806" y="-171.8" font-family="Helvetica,sans-Serif" font-size="14.00">satisfaction_level ≤ 0.465</text>
<text text-anchor="start" x="849" y="-156.8" font-family="Helvetica,sans-Serif" font-size="14.00">gini = 0.447</text>
<text text-anchor="start" x="839" y="-141.8" font-family="Helvetica,sans-Serif" font-size="14.00">samples = 294</text>
<text text-anchor="start" x="829.5" y="-126.8" font-family="Helvetica,sans-Serif" font-size="14.00">value = [305, 155]</text>
<text text-anchor="start" x="854" y="-111.8" font-family="Helvetica,sans-Serif" font-size="14.00">class = no</text>
</g>
<!-- 11&#45;&gt;15 -->
<g id="edge15" class="edge"><title>11&#45;&gt;15</title>
<path fill="none" stroke="black" d="M823.154,-222.907C830.677,-213.832 838.729,-204.121 846.482,-194.769"/>
<polygon fill="black" stroke="black" points="849.218,-196.953 852.906,-187.021 843.829,-192.485 849.218,-196.953"/>
</g>
<!-- 13 -->
<g id="node14" class="node"><title>13</title>
<path fill="#5fb0ea" stroke="black" d="M628.5,-68C628.5,-68 522.5,-68 522.5,-68 516.5,-68 510.5,-62 510.5,-56 510.5,-56 510.5,-12 510.5,-12 510.5,-6 516.5,-0 522.5,-0 522.5,-0 628.5,-0 628.5,-0 634.5,-0 640.5,-6 640.5,-12 640.5,-12 640.5,-56 640.5,-56 640.5,-62 634.5,-68 628.5,-68"/>
<text text-anchor="start" x="538" y="-52.8" font-family="Helvetica,sans-Serif" font-size="14.00">gini = 0.271</text>
<text text-anchor="start" x="528" y="-37.8" font-family="Helvetica,sans-Serif" font-size="14.00">samples = 553</text>
<text text-anchor="start" x="518.5" y="-22.8" font-family="Helvetica,sans-Serif" font-size="14.00">value = [140, 727]</text>
<text text-anchor="start" x="539.5" y="-7.8" font-family="Helvetica,sans-Serif" font-size="14.00">class = yes</text>
</g>
<!-- 12&#45;&gt;13 -->
<g id="edge13" class="edge"><title>12&#45;&gt;13</title>
<path fill="none" stroke="black" d="M648.306,-103.726C638.45,-94.423 627.984,-84.5428 618.151,-75.2612"/>
<polygon fill="black" stroke="black" points="620.451,-72.6189 610.776,-68.2996 615.646,-77.7092 620.451,-72.6189"/>
</g>
<!-- 14 -->
<g id="node15" class="node"><title>14</title>
<path fill="#e5833d" stroke="black" d="M768.5,-68C768.5,-68 670.5,-68 670.5,-68 664.5,-68 658.5,-62 658.5,-56 658.5,-56 658.5,-12 658.5,-12 658.5,-6 664.5,-0 670.5,-0 670.5,-0 768.5,-0 768.5,-0 774.5,-0 780.5,-6 780.5,-12 780.5,-12 780.5,-56 780.5,-56 780.5,-62 774.5,-68 768.5,-68"/>
<text text-anchor="start" x="682" y="-52.8" font-family="Helvetica,sans-Serif" font-size="14.00">gini = 0.035</text>
<text text-anchor="start" x="672" y="-37.8" font-family="Helvetica,sans-Serif" font-size="14.00">samples = 649</text>
<text text-anchor="start" x="666.5" y="-22.8" font-family="Helvetica,sans-Serif" font-size="14.00">value = [990, 18]</text>
<text text-anchor="start" x="687" y="-7.8" font-family="Helvetica,sans-Serif" font-size="14.00">class = no</text>
</g>
<!-- 12&#45;&gt;14 -->
<g id="edge14" class="edge"><title>12&#45;&gt;14</title>
<path fill="none" stroke="black" d="M701.926,-103.726C704.072,-95.3351 706.338,-86.4745 708.503,-78.0072"/>
<polygon fill="black" stroke="black" points="711.898,-78.855 710.985,-68.2996 705.117,-77.1208 711.898,-78.855"/>
</g>
<!-- 16 -->
<g id="node17" class="node"><title>16</title>
<path fill="#6eb7ec" stroke="black" d="M908.5,-68C908.5,-68 810.5,-68 810.5,-68 804.5,-68 798.5,-62 798.5,-56 798.5,-56 798.5,-12 798.5,-12 798.5,-6 804.5,-0 810.5,-0 810.5,-0 908.5,-0 908.5,-0 914.5,-0 920.5,-6 920.5,-12 920.5,-12 920.5,-56 920.5,-56 920.5,-62 914.5,-68 908.5,-68"/>
<text text-anchor="start" x="822" y="-52.8" font-family="Helvetica,sans-Serif" font-size="14.00">gini = 0.333</text>
<text text-anchor="start" x="812" y="-37.8" font-family="Helvetica,sans-Serif" font-size="14.00">samples = 120</text>
<text text-anchor="start" x="806.5" y="-22.8" font-family="Helvetica,sans-Serif" font-size="14.00">value = [41, 153]</text>
<text text-anchor="start" x="823.5" y="-7.8" font-family="Helvetica,sans-Serif" font-size="14.00">class = yes</text>
</g>
<!-- 15&#45;&gt;16 -->
<g id="edge16" class="edge"><title>15&#45;&gt;16</title>
<path fill="none" stroke="black" d="M876.446,-103.726C874.4,-95.4263 872.24,-86.6671 870.173,-78.2834"/>
<polygon fill="black" stroke="black" points="873.503,-77.1709 867.711,-68.2996 866.707,-78.8467 873.503,-77.1709"/>
</g>
<!-- 17 -->
<g id="node18" class="node"><title>17</title>
<path fill="#e5823b" stroke="black" d="M1040,-68C1040,-68 951,-68 951,-68 945,-68 939,-62 939,-56 939,-56 939,-12 939,-12 939,-6 945,-0 951,-0 951,-0 1040,-0 1040,-0 1046,-0 1052,-6 1052,-12 1052,-12 1052,-56 1052,-56 1052,-62 1046,-68 1040,-68"/>
<text text-anchor="start" x="958" y="-52.8" font-family="Helvetica,sans-Serif" font-size="14.00">gini = 0.015</text>
<text text-anchor="start" x="948" y="-37.8" font-family="Helvetica,sans-Serif" font-size="14.00">samples = 174</text>
<text text-anchor="start" x="947" y="-22.8" font-family="Helvetica,sans-Serif" font-size="14.00">value = [264, 2]</text>
<text text-anchor="start" x="963" y="-7.8" font-family="Helvetica,sans-Serif" font-size="14.00">class = no</text>
</g>
<!-- 15&#45;&gt;17 -->
<g id="edge17" class="edge"><title>15&#45;&gt;17</title>
<path fill="none" stroke="black" d="M927.088,-103.726C936.258,-94.5142 945.991,-84.7364 955.151,-75.5343"/>
<polygon fill="black" stroke="black" points="957.778,-77.8561 962.352,-68.2996 952.817,-72.9176 957.778,-77.8561"/>
</g>
<!-- 19 -->
<g id="node20" class="node"><title>19</title>
<path fill="#399de5" stroke="black" d="M1083,-417.5C1083,-417.5 994,-417.5 994,-417.5 988,-417.5 982,-411.5 982,-405.5 982,-405.5 982,-361.5 982,-361.5 982,-355.5 988,-349.5 994,-349.5 994,-349.5 1083,-349.5 1083,-349.5 1089,-349.5 1095,-355.5 1095,-361.5 1095,-361.5 1095,-405.5 1095,-405.5 1095,-411.5 1089,-417.5 1083,-417.5"/>
<text text-anchor="start" x="1009.5" y="-402.3" font-family="Helvetica,sans-Serif" font-size="14.00">gini = 0.0</text>
<text text-anchor="start" x="991" y="-387.3" font-family="Helvetica,sans-Serif" font-size="14.00">samples = 399</text>
<text text-anchor="start" x="990" y="-372.3" font-family="Helvetica,sans-Serif" font-size="14.00">value = [0, 620]</text>
<text text-anchor="start" x="1002.5" y="-357.3" font-family="Helvetica,sans-Serif" font-size="14.00">class = yes</text>
</g>
<!-- 18&#45;&gt;19 -->
<g id="edge19" class="edge"><title>18&#45;&gt;19</title>
<path fill="none" stroke="black" d="M1038.5,-460.907C1038.5,-450.204 1038.5,-438.615 1038.5,-427.776"/>
<polygon fill="black" stroke="black" points="1042,-427.667 1038.5,-417.667 1035,-427.667 1042,-427.667"/>
</g>
<!-- 20 -->
<g id="node21" class="node"><title>20</title>
<path fill="#e89152" stroke="black" d="M1411,-425C1411,-425 1274,-425 1274,-425 1268,-425 1262,-419 1262,-413 1262,-413 1262,-354 1262,-354 1262,-348 1268,-342 1274,-342 1274,-342 1411,-342 1411,-342 1417,-342 1423,-348 1423,-354 1423,-354 1423,-413 1423,-413 1423,-419 1417,-425 1411,-425"/>
<text text-anchor="start" x="1270" y="-409.8" font-family="Helvetica,sans-Serif" font-size="14.00">last_evaluation ≤ 0.825</text>
<text text-anchor="start" x="1305" y="-394.8" font-family="Helvetica,sans-Serif" font-size="14.00">gini = 0.199</text>
<text text-anchor="start" x="1291" y="-379.8" font-family="Helvetica,sans-Serif" font-size="14.00">samples = 4362</text>
<text text-anchor="start" x="1281.5" y="-364.8" font-family="Helvetica,sans-Serif" font-size="14.00">value = [6103, 770]</text>
<text text-anchor="start" x="1310" y="-349.8" font-family="Helvetica,sans-Serif" font-size="14.00">class = no</text>
</g>
<!-- 18&#45;&gt;20 -->
<g id="edge20" class="edge"><title>18&#45;&gt;20</title>
<path fill="none" stroke="black" d="M1127.25,-467.344C1166.67,-452.17 1213.01,-434.337 1252.57,-419.111"/>
<polygon fill="black" stroke="black" points="1253.87,-422.36 1261.95,-415.502 1251.36,-415.827 1253.87,-422.36"/>
</g>
<!-- 21 -->
<g id="node22" class="node"><title>21</title>
<path fill="#e6843e" stroke="black" d="M1419,-306C1419,-306 1266,-306 1266,-306 1260,-306 1254,-300 1254,-294 1254,-294 1254,-235 1254,-235 1254,-229 1260,-223 1266,-223 1266,-223 1419,-223 1419,-223 1425,-223 1431,-229 1431,-235 1431,-235 1431,-294 1431,-294 1431,-300 1425,-306 1419,-306"/>
<text text-anchor="start" x="1262" y="-290.8" font-family="Helvetica,sans-Serif" font-size="14.00">satisfaction_level ≤ 0.465</text>
<text text-anchor="start" x="1305" y="-275.8" font-family="Helvetica,sans-Serif" font-size="14.00">gini = 0.047</text>
<text text-anchor="start" x="1291" y="-260.8" font-family="Helvetica,sans-Serif" font-size="14.00">samples = 2447</text>
<text text-anchor="start" x="1285.5" y="-245.8" font-family="Helvetica,sans-Serif" font-size="14.00">value = [3798, 93]</text>
<text text-anchor="start" x="1310" y="-230.8" font-family="Helvetica,sans-Serif" font-size="14.00">class = no</text>
</g>
<!-- 20&#45;&gt;21 -->
<g id="edge21" class="edge"><title>20&#45;&gt;21</title>
<path fill="none" stroke="black" d="M1342.5,-341.907C1342.5,-333.649 1342.5,-324.864 1342.5,-316.302"/>
<polygon fill="black" stroke="black" points="1346,-316.021 1342.5,-306.021 1339,-316.021 1346,-316.021"/>
</g>
<!-- 28 -->
<g id="node29" class="node"><title>28</title>
<path fill="#eda673" stroke="black" d="M1822,-306C1822,-306 1685,-306 1685,-306 1679,-306 1673,-300 1673,-294 1673,-294 1673,-235 1673,-235 1673,-229 1679,-223 1685,-223 1685,-223 1822,-223 1822,-223 1828,-223 1834,-229 1834,-235 1834,-235 1834,-294 1834,-294 1834,-300 1828,-306 1822,-306"/>
<text text-anchor="start" x="1681" y="-290.8" font-family="Helvetica,sans-Serif" font-size="14.00">last_evaluation ≤ 0.995</text>
<text text-anchor="start" x="1716" y="-275.8" font-family="Helvetica,sans-Serif" font-size="14.00">gini = 0.351</text>
<text text-anchor="start" x="1702" y="-260.8" font-family="Helvetica,sans-Serif" font-size="14.00">samples = 1915</text>
<text text-anchor="start" x="1692.5" y="-245.8" font-family="Helvetica,sans-Serif" font-size="14.00">value = [2305, 677]</text>
<text text-anchor="start" x="1721" y="-230.8" font-family="Helvetica,sans-Serif" font-size="14.00">class = no</text>
</g>
<!-- 20&#45;&gt;28 -->
<g id="edge28" class="edge"><title>20&#45;&gt;28</title>
<path fill="none" stroke="black" d="M1423.21,-359.524C1492.2,-339.884 1591.4,-311.646 1663.05,-291.248"/>
<polygon fill="black" stroke="black" points="1664.32,-294.528 1672.97,-288.423 1662.4,-287.795 1664.32,-294.528"/>
</g>
<!-- 22 -->
<g id="node23" class="node"><title>22</title>
<path fill="#e78c4a" stroke="black" d="M1322,-187C1322,-187 1185,-187 1185,-187 1179,-187 1173,-181 1173,-175 1173,-175 1173,-116 1173,-116 1173,-110 1179,-104 1185,-104 1185,-104 1322,-104 1322,-104 1328,-104 1334,-110 1334,-116 1334,-116 1334,-175 1334,-175 1334,-181 1328,-187 1322,-187"/>
<text text-anchor="start" x="1181" y="-171.8" font-family="Helvetica,sans-Serif" font-size="14.00">last_evaluation ≤ 0.625</text>
<text text-anchor="start" x="1216" y="-156.8" font-family="Helvetica,sans-Serif" font-size="14.00">gini = 0.143</text>
<text text-anchor="start" x="1206" y="-141.8" font-family="Helvetica,sans-Serif" font-size="14.00">samples = 340</text>
<text text-anchor="start" x="1200.5" y="-126.8" font-family="Helvetica,sans-Serif" font-size="14.00">value = [490, 41]</text>
<text text-anchor="start" x="1221" y="-111.8" font-family="Helvetica,sans-Serif" font-size="14.00">class = no</text>
</g>
<!-- 21&#45;&gt;22 -->
<g id="edge22" class="edge"><title>21&#45;&gt;22</title>
<path fill="none" stroke="black" d="M1311.62,-222.907C1304.79,-213.923 1297.48,-204.315 1290.43,-195.05"/>
<polygon fill="black" stroke="black" points="1293.16,-192.861 1284.32,-187.021 1287.59,-197.099 1293.16,-192.861"/>
</g>
<!-- 25 -->
<g id="node26" class="node"><title>25</title>
<path fill="#e5833c" stroke="black" d="M1501,-187C1501,-187 1364,-187 1364,-187 1358,-187 1352,-181 1352,-175 1352,-175 1352,-116 1352,-116 1352,-110 1358,-104 1364,-104 1364,-104 1501,-104 1501,-104 1507,-104 1513,-110 1513,-116 1513,-116 1513,-175 1513,-175 1513,-181 1507,-187 1501,-187"/>
<text text-anchor="start" x="1360" y="-171.8" font-family="Helvetica,sans-Serif" font-size="14.00">last_evaluation ≤ 0.805</text>
<text text-anchor="start" x="1399" y="-156.8" font-family="Helvetica,sans-Serif" font-size="14.00">gini = 0.03</text>
<text text-anchor="start" x="1381" y="-141.8" font-family="Helvetica,sans-Serif" font-size="14.00">samples = 2107</text>
<text text-anchor="start" x="1375.5" y="-126.8" font-family="Helvetica,sans-Serif" font-size="14.00">value = [3308, 52]</text>
<text text-anchor="start" x="1400" y="-111.8" font-family="Helvetica,sans-Serif" font-size="14.00">class = no</text>
</g>
<!-- 21&#45;&gt;25 -->
<g id="edge25" class="edge"><title>21&#45;&gt;25</title>
<path fill="none" stroke="black" d="M1373.73,-222.907C1380.64,-213.923 1388.03,-204.315 1395.15,-195.05"/>
<polygon fill="black" stroke="black" points="1398.01,-197.081 1401.33,-187.021 1392.46,-192.813 1398.01,-197.081"/>
</g>
<!-- 23 -->
<g id="node24" class="node"><title>23</title>
<path fill="#e99456" stroke="black" d="M1180.5,-68C1180.5,-68 1082.5,-68 1082.5,-68 1076.5,-68 1070.5,-62 1070.5,-56 1070.5,-56 1070.5,-12 1070.5,-12 1070.5,-6 1076.5,-0 1082.5,-0 1082.5,-0 1180.5,-0 1180.5,-0 1186.5,-0 1192.5,-6 1192.5,-12 1192.5,-12 1192.5,-56 1192.5,-56 1192.5,-62 1186.5,-68 1180.5,-68"/>
<text text-anchor="start" x="1094" y="-52.8" font-family="Helvetica,sans-Serif" font-size="14.00">gini = 0.224</text>
<text text-anchor="start" x="1088" y="-37.8" font-family="Helvetica,sans-Serif" font-size="14.00">samples = 77</text>
<text text-anchor="start" x="1078.5" y="-22.8" font-family="Helvetica,sans-Serif" font-size="14.00">value = [102, 15]</text>
<text text-anchor="start" x="1099" y="-7.8" font-family="Helvetica,sans-Serif" font-size="14.00">class = no</text>
</g>
<!-- 22&#45;&gt;23 -->
<g id="edge23" class="edge"><title>22&#45;&gt;23</title>
<path fill="none" stroke="black" d="M1208.07,-103.726C1197.6,-94.3318 1186.48,-84.349 1176.05,-74.9883"/>
<polygon fill="black" stroke="black" points="1178.38,-72.3744 1168.6,-68.2996 1173.71,-77.5839 1178.38,-72.3744"/>
</g>
<!-- 24 -->
<g id="node25" class="node"><title>24</title>
<path fill="#e78946" stroke="black" d="M1320.5,-68C1320.5,-68 1222.5,-68 1222.5,-68 1216.5,-68 1210.5,-62 1210.5,-56 1210.5,-56 1210.5,-12 1210.5,-12 1210.5,-6 1216.5,-0 1222.5,-0 1222.5,-0 1320.5,-0 1320.5,-0 1326.5,-0 1332.5,-6 1332.5,-12 1332.5,-12 1332.5,-56 1332.5,-56 1332.5,-62 1326.5,-68 1320.5,-68"/>
<text text-anchor="start" x="1234" y="-52.8" font-family="Helvetica,sans-Serif" font-size="14.00">gini = 0.118</text>
<text text-anchor="start" x="1224" y="-37.8" font-family="Helvetica,sans-Serif" font-size="14.00">samples = 263</text>
<text text-anchor="start" x="1218.5" y="-22.8" font-family="Helvetica,sans-Serif" font-size="14.00">value = [388, 26]</text>
<text text-anchor="start" x="1239" y="-7.8" font-family="Helvetica,sans-Serif" font-size="14.00">class = no</text>
</g>
<!-- 22&#45;&gt;24 -->
<g id="edge24" class="edge"><title>22&#45;&gt;24</title>
<path fill="none" stroke="black" d="M1260.2,-103.726C1261.57,-95.4263 1263.01,-86.6671 1264.38,-78.2834"/>
<polygon fill="black" stroke="black" points="1267.86,-78.7349 1266.03,-68.2996 1260.95,-77.5994 1267.86,-78.7349"/>
</g>
<!-- 26 -->
<g id="node27" class="node"><title>26</title>
<path fill="#e5823b" stroke="black" d="M1468.5,-68C1468.5,-68 1362.5,-68 1362.5,-68 1356.5,-68 1350.5,-62 1350.5,-56 1350.5,-56 1350.5,-12 1350.5,-12 1350.5,-6 1356.5,-0 1362.5,-0 1362.5,-0 1468.5,-0 1468.5,-0 1474.5,-0 1480.5,-6 1480.5,-12 1480.5,-12 1480.5,-56 1480.5,-56 1480.5,-62 1474.5,-68 1468.5,-68"/>
<text text-anchor="start" x="1378" y="-52.8" font-family="Helvetica,sans-Serif" font-size="14.00">gini = 0.019</text>
<text text-anchor="start" x="1364" y="-37.8" font-family="Helvetica,sans-Serif" font-size="14.00">samples = 1944</text>
<text text-anchor="start" x="1358.5" y="-22.8" font-family="Helvetica,sans-Serif" font-size="14.00">value = [3055, 29]</text>
<text text-anchor="start" x="1383" y="-7.8" font-family="Helvetica,sans-Serif" font-size="14.00">class = no</text>
</g>
<!-- 25&#45;&gt;26 -->
<g id="edge26" class="edge"><title>25&#45;&gt;26</title>
<path fill="none" stroke="black" d="M1426.17,-103.726C1424.88,-95.4263 1423.52,-86.6671 1422.22,-78.2834"/>
<polygon fill="black" stroke="black" points="1425.66,-77.6442 1420.67,-68.2996 1418.75,-78.7182 1425.66,-77.6442"/>
</g>
<!-- 27 -->
<g id="node28" class="node"><title>27</title>
<path fill="#e78c4b" stroke="black" d="M1608.5,-68C1608.5,-68 1510.5,-68 1510.5,-68 1504.5,-68 1498.5,-62 1498.5,-56 1498.5,-56 1498.5,-12 1498.5,-12 1498.5,-6 1504.5,-0 1510.5,-0 1510.5,-0 1608.5,-0 1608.5,-0 1614.5,-0 1620.5,-6 1620.5,-12 1620.5,-12 1620.5,-56 1620.5,-56 1620.5,-62 1614.5,-68 1608.5,-68"/>
<text text-anchor="start" x="1522" y="-52.8" font-family="Helvetica,sans-Serif" font-size="14.00">gini = 0.153</text>
<text text-anchor="start" x="1512" y="-37.8" font-family="Helvetica,sans-Serif" font-size="14.00">samples = 163</text>
<text text-anchor="start" x="1506.5" y="-22.8" font-family="Helvetica,sans-Serif" font-size="14.00">value = [253, 23]</text>
<text text-anchor="start" x="1527" y="-7.8" font-family="Helvetica,sans-Serif" font-size="14.00">class = no</text>
</g>
<!-- 25&#45;&gt;27 -->
<g id="edge27" class="edge"><title>25&#45;&gt;27</title>
<path fill="none" stroke="black" d="M1479.79,-103.726C1490.69,-94.3318 1502.26,-84.349 1513.12,-74.9883"/>
<polygon fill="black" stroke="black" points="1515.59,-77.4804 1520.88,-68.2996 1511.02,-72.1789 1515.59,-77.4804"/>
</g>
<!-- 29 -->
<g id="node30" class="node"><title>29</title>
<path fill="#eba06a" stroke="black" d="M1830,-187C1830,-187 1677,-187 1677,-187 1671,-187 1665,-181 1665,-175 1665,-175 1665,-116 1665,-116 1665,-110 1671,-104 1677,-104 1677,-104 1830,-104 1830,-104 1836,-104 1842,-110 1842,-116 1842,-116 1842,-175 1842,-175 1842,-181 1836,-187 1830,-187"/>
<text text-anchor="start" x="1673" y="-171.8" font-family="Helvetica,sans-Serif" font-size="14.00">satisfaction_level ≤ 0.725</text>
<text text-anchor="start" x="1716" y="-156.8" font-family="Helvetica,sans-Serif" font-size="14.00">gini = 0.317</text>
<text text-anchor="start" x="1702" y="-141.8" font-family="Helvetica,sans-Serif" font-size="14.00">samples = 1795</text>
<text text-anchor="start" x="1692.5" y="-126.8" font-family="Helvetica,sans-Serif" font-size="14.00">value = [2238, 550]</text>
<text text-anchor="start" x="1721" y="-111.8" font-family="Helvetica,sans-Serif" font-size="14.00">class = no</text>
</g>
<!-- 28&#45;&gt;29 -->
<g id="edge29" class="edge"><title>28&#45;&gt;29</title>
<path fill="none" stroke="black" d="M1753.5,-222.907C1753.5,-214.649 1753.5,-205.864 1753.5,-197.302"/>
<polygon fill="black" stroke="black" points="1757,-197.021 1753.5,-187.021 1750,-197.021 1757,-197.021"/>
</g>
<!-- 32 -->
<g id="node33" class="node"><title>32</title>
<path fill="#a1d1f3" stroke="black" d="M2076,-187C2076,-187 1923,-187 1923,-187 1917,-187 1911,-181 1911,-175 1911,-175 1911,-116 1911,-116 1911,-110 1917,-104 1923,-104 1923,-104 2076,-104 2076,-104 2082,-104 2088,-110 2088,-116 2088,-116 2088,-175 2088,-175 2088,-181 2082,-187 2076,-187"/>
<text text-anchor="start" x="1919" y="-171.8" font-family="Helvetica,sans-Serif" font-size="14.00">satisfaction_level ≤ 0.715</text>
<text text-anchor="start" x="1962" y="-156.8" font-family="Helvetica,sans-Serif" font-size="14.00">gini = 0.452</text>
<text text-anchor="start" x="1952" y="-141.8" font-family="Helvetica,sans-Serif" font-size="14.00">samples = 120</text>
<text text-anchor="start" x="1946.5" y="-126.8" font-family="Helvetica,sans-Serif" font-size="14.00">value = [67, 127]</text>
<text text-anchor="start" x="1963.5" y="-111.8" font-family="Helvetica,sans-Serif" font-size="14.00">class = yes</text>
</g>
<!-- 28&#45;&gt;32 -->
<g id="edge32" class="edge"><title>28&#45;&gt;32</title>
<path fill="none" stroke="black" d="M1834.05,-225.19C1856.69,-214.423 1881.51,-202.616 1904.89,-191.498"/>
<polygon fill="black" stroke="black" points="1906.59,-194.566 1914.11,-187.111 1903.58,-188.245 1906.59,-194.566"/>
</g>
<!-- 30 -->
<g id="node31" class="node"><title>30</title>
<path fill="#e68743" stroke="black" d="M1756.5,-68C1756.5,-68 1650.5,-68 1650.5,-68 1644.5,-68 1638.5,-62 1638.5,-56 1638.5,-56 1638.5,-12 1638.5,-12 1638.5,-6 1644.5,-0 1650.5,-0 1650.5,-0 1756.5,-0 1756.5,-0 1762.5,-0 1768.5,-6 1768.5,-12 1768.5,-12 1768.5,-56 1768.5,-56 1768.5,-62 1762.5,-68 1756.5,-68"/>
<text text-anchor="start" x="1666" y="-52.8" font-family="Helvetica,sans-Serif" font-size="14.00">gini = 0.093</text>
<text text-anchor="start" x="1656" y="-37.8" font-family="Helvetica,sans-Serif" font-size="14.00">samples = 829</text>
<text text-anchor="start" x="1646.5" y="-22.8" font-family="Helvetica,sans-Serif" font-size="14.00">value = [1206, 62]</text>
<text text-anchor="start" x="1671" y="-7.8" font-family="Helvetica,sans-Serif" font-size="14.00">class = no</text>
</g>
<!-- 29&#45;&gt;30 -->
<g id="edge30" class="edge"><title>29&#45;&gt;30</title>
<path fill="none" stroke="black" d="M1734.88,-103.726C1730.97,-95.1527 1726.83,-86.0891 1722.89,-77.4555"/>
<polygon fill="black" stroke="black" points="1726.04,-75.9423 1718.71,-68.2996 1719.68,-78.85 1726.04,-75.9423"/>
</g>
<!-- 31 -->
<g id="node32" class="node"><title>31</title>
<path fill="#f1bd97" stroke="black" d="M1912.5,-68C1912.5,-68 1798.5,-68 1798.5,-68 1792.5,-68 1786.5,-62 1786.5,-56 1786.5,-56 1786.5,-12 1786.5,-12 1786.5,-6 1792.5,-0 1798.5,-0 1798.5,-0 1912.5,-0 1912.5,-0 1918.5,-0 1924.5,-6 1924.5,-12 1924.5,-12 1924.5,-56 1924.5,-56 1924.5,-62 1918.5,-68 1912.5,-68"/>
<text text-anchor="start" x="1818" y="-52.8" font-family="Helvetica,sans-Serif" font-size="14.00">gini = 0.436</text>
<text text-anchor="start" x="1808" y="-37.8" font-family="Helvetica,sans-Serif" font-size="14.00">samples = 966</text>
<text text-anchor="start" x="1794.5" y="-22.8" font-family="Helvetica,sans-Serif" font-size="14.00">value = [1032, 488]</text>
<text text-anchor="start" x="1823" y="-7.8" font-family="Helvetica,sans-Serif" font-size="14.00">class = no</text>
</g>
<!-- 29&#45;&gt;31 -->
<g id="edge31" class="edge"><title>29&#45;&gt;31</title>
<path fill="none" stroke="black" d="M1791.48,-103.726C1799.98,-94.6054 1808.99,-84.93 1817.49,-75.8078"/>
<polygon fill="black" stroke="black" points="1820.23,-78.0025 1824.48,-68.2996 1815.1,-73.2312 1820.23,-78.0025"/>
</g>
<!-- 33 -->
<g id="node34" class="node"><title>33</title>
<path fill="#eda876" stroke="black" d="M2044,-68C2044,-68 1955,-68 1955,-68 1949,-68 1943,-62 1943,-56 1943,-56 1943,-12 1943,-12 1943,-6 1949,-0 1955,-0 1955,-0 2044,-0 2044,-0 2050,-0 2056,-6 2056,-12 2056,-12 2056,-56 2056,-56 2056,-62 2050,-68 2044,-68"/>
<text text-anchor="start" x="1962" y="-52.8" font-family="Helvetica,sans-Serif" font-size="14.00">gini = 0.359</text>
<text text-anchor="start" x="1956" y="-37.8" font-family="Helvetica,sans-Serif" font-size="14.00">samples = 33</text>
<text text-anchor="start" x="1951" y="-22.8" font-family="Helvetica,sans-Serif" font-size="14.00">value = [36, 11]</text>
<text text-anchor="start" x="1967" y="-7.8" font-family="Helvetica,sans-Serif" font-size="14.00">class = no</text>
</g>
<!-- 32&#45;&gt;33 -->
<g id="edge33" class="edge"><title>32&#45;&gt;33</title>
<path fill="none" stroke="black" d="M1999.5,-103.726C1999.5,-95.5175 1999.5,-86.8595 1999.5,-78.56"/>
<polygon fill="black" stroke="black" points="2003,-78.2996 1999.5,-68.2996 1996,-78.2996 2003,-78.2996"/>
</g>
<!-- 34 -->
<g id="node35" class="node"><title>34</title>
<path fill="#6eb7ec" stroke="black" d="M2184.5,-68C2184.5,-68 2086.5,-68 2086.5,-68 2080.5,-68 2074.5,-62 2074.5,-56 2074.5,-56 2074.5,-12 2074.5,-12 2074.5,-6 2080.5,-0 2086.5,-0 2086.5,-0 2184.5,-0 2184.5,-0 2190.5,-0 2196.5,-6 2196.5,-12 2196.5,-12 2196.5,-56 2196.5,-56 2196.5,-62 2190.5,-68 2184.5,-68"/>
<text text-anchor="start" x="2098" y="-52.8" font-family="Helvetica,sans-Serif" font-size="14.00">gini = 0.333</text>
<text text-anchor="start" x="2092" y="-37.8" font-family="Helvetica,sans-Serif" font-size="14.00">samples = 87</text>
<text text-anchor="start" x="2082.5" y="-22.8" font-family="Helvetica,sans-Serif" font-size="14.00">value = [31, 116]</text>
<text text-anchor="start" x="2099.5" y="-7.8" font-family="Helvetica,sans-Serif" font-size="14.00">class = yes</text>
</g>
<!-- 32&#45;&gt;34 -->
<g id="edge34" class="edge"><title>32&#45;&gt;34</title>
<path fill="none" stroke="black" d="M2050.14,-103.726C2061.92,-94.2406 2074.45,-84.1551 2086.17,-74.7159"/>
<polygon fill="black" stroke="black" points="2088.55,-77.2972 2094.14,-68.2996 2084.16,-71.8448 2088.55,-77.2972"/>
</g>
</g>
</svg>
